<?xml version="1.0" encoding="UTF-8"?>
<svg xmlns="http://www.w3.org/2000/svg" width="1273" height="686">
    <g>
        <rect fill="#00aa00" stroke="#55aa7f" x="258" y="17" width="105" height="72" id="fab13fe7c113feecfaca0e06cd48599b"/>
        <rect fill="#00aa00" stroke="#55aa7f" x="269" y="121" width="108" height="58" id="19e2c707b02fcce3a26496ad3d445f2d"/>
        <rect fill="#00aa00" stroke="#55aa7f" x="255" y="215" width="99" height="55" id="196890ef233569e35ef14cde8107910d"/>
        <rect fill="#00aa00" stroke="#55aa7f" x="258" y="301" width="105" height="67" id="d0e48037d75bab9e7035c86c08f79818"/>
        <rect fill="#00aa00" stroke="#55aa7f" x="261" y="401" width="131" height="56" id="e8c6167b85d829dd607dff2cc6c00753"/>
        <rect fill="#00aa00" stroke="#55aa7f" x="263" y="494" width="94" height="64" id="e13df6c69abddcf936ac363b64bdca7d"/>
        <rect fill="#00aa00" stroke="#55aa7f" x="263" y="614" width="93" height="47" id="e945e2f98b4a19439edbb17aa2b378f6"/>
        <rect fill="#00aa00" stroke="#55aa7f" x="646" y="606" width="116" height="62" id="cb116b75848d79076cc923d78f77fa60"/>
        <rect fill="#00aa00" stroke="#55aa7f" x="646" y="483" width="126" height="86" id="d39c298aa87e17104ec574de88bc93d7"/>
        <rect fill="#00aa00" stroke="#55aa7f" x="698" y="400" width="122" height="73" id="436e1441559df1142e09937acc626ab6"/>
        <rect fill="#00aa00" stroke="#55aa7f" x="638" y="308" width="95" height="59" id="537ee1301af81fea4feb3f46e19ba685"/>
        <rect fill="#00aa00" stroke="#55aa7f" x="635" y="208" width="111" height="68" id="adadbcda3d9e57b64f2f525246079c80"/>
        <rect fill="#00aa00" stroke="#55aa7f" x="664" y="116" width="105" height="62" id="33be43716e5b7dac089d3abdab5396d0"/>
        <rect fill="#00aa00" stroke="#55aa7f" x="649" y="25" width="97" height="69" id="cf31b4fea01d207b5ca4788745a8d299"/>
        <rect fill="#00aa00" stroke="#55aa7f" x="1032" y="16" width="99" height="55" id="9b11dd79543cc7d92500a8a8e413677c"/>
        <rect fill="#00aa00" stroke="#55aa7f" x="1060" y="111" width="113" height="64" id="a268e09e3b2f462d3c8722d8c24ddbe0"/>
        <rect fill="#00aa00" stroke="#55aa7f" x="1019" y="213" width="100" height="61" id="04743f859beddee207aa0abeb4a943c3"/>
        <rect fill="#00aa00" stroke="#55aa7f" x="1034" y="304" width="114" height="83" id="80f12f829f71062cd98c3cc9f200b2cd"/>
        <rect fill="#00aa00" stroke="#55aa7f" x="1106" y="410" width="138" height="55" id="fc1d997b20ceaa1afcfd04608efb7539"/>
        <rect fill="#00aa00" stroke="#55aa7f" x="1045" y="492" width="85" height="62" id="03064abebadc2227a2c54e7d7b8f884b"/>
        <rect fill="#00aa00" stroke="#55aa7f" x="1037" y="599" width="111" height="63" id="bad0f7979dee7ca1168d9a0f15877d19"/>
    </g>
</svg>
