<?xml version="1.0" encoding="UTF-8"?>
<svg width="114px" height="114px" viewBox="0 0 114 114" version="1.1" xmlns="http://www.w3.org/2000/svg" xmlns:xlink="http://www.w3.org/1999/xlink">
    <title>3备份</title>
    <defs>
        <path d="M57.4689826,85 C61.1497105,85 64.1583954,83.9045383 66.4950372,81.713615 C68.8316791,79.5226917 70,76.5910276 70,72.9186228 C70,68.1611894 68.3870968,65.0730308 65.1612903,63.6541471 C67.5599669,62.0266041 68.7593052,59.3766302 68.7593052,55.7042254 C68.7593052,52.4074074 67.7667494,49.7991654 65.7816377,47.8794992 C63.7965261,45.9598331 61.1600496,45 57.8722084,45 C54.5843672,45 51.9272126,45.980699 49.9007444,47.942097 C47.8742763,49.903495 46.6956162,52.5743349 46.3647643,55.9546166 L46.3647643,55.9546166 L52.382134,55.9546166 C52.382134,52.0735524 54.1087676,50.1330203 57.5620347,50.1330203 C61.0153019,50.1330203 62.7419355,52.0735524 62.7419355,55.9546166 C62.7419355,57.5821596 62.1732837,58.9488785 61.0359801,60.0547731 C59.8986766,61.1606677 58.5442514,61.713615 56.9727047,61.713615 L56.9727047,61.713615 L56.1662531,61.713615 L56.1662531,66.0328638 L57.5310174,65.9076682 C57.6964433,65.8659364 57.8618693,65.8450704 58.0272953,65.8450704 C59.516129,65.8450704 60.8498759,66.5440793 62.028536,67.942097 C63.207196,69.3401148 63.7965261,70.8528951 63.7965261,72.4804382 C63.7965261,74.4418362 63.2485525,76.1111111 62.1526055,77.4882629 C61.0566584,78.8654147 59.5885029,79.5539906 57.748139,79.5539906 C55.907775,79.5539906 54.3879239,78.9280125 53.1885856,77.6760563 C51.9892473,76.4241002 51.3895782,74.8800209 51.3895782,73.0438185 L51.3895782,73.0438185 L45,73.0438185 C45,76.4241002 46.2200165,79.2618675 48.6600496,81.5571205 C51.1000827,83.8523735 54.0363937,85 57.4689826,85 Z" id="path-1"></path>
    </defs>
    <g id="页面-1" stroke="none" stroke-width="1" fill="none" fill-rule="evenodd">
        <g id="画板备份" transform="translate(-1763.000000, -661.000000)">
            <g id="3备份" transform="translate(1763.000000, 661.000000)">
                <rect id="矩形" x="0" y="0" width="114" height="114"></rect>
                <path d="M56.7602398,12.7669206 C57.0086974,12.7055606 57.2805631,12.738984 57.516946,12.8817347 L57.516946,12.8817347 L107.767635,95.8701508 C107.910386,96.1065337 107.943809,96.3783993 107.882449,96.6268569 C107.821089,96.8753146 107.664946,97.1003641 107.428563,97.2431148 C107.272584,97.3373101 107.093832,97.3870968 106.911617,97.3870968 L106.911617,97.3870968 L7.08838316,97.3870968 C6.81224078,97.3870968 6.56224078,97.275168 6.38127637,97.0942036 C6.20031197,96.9132391 6.08838316,96.6632391 6.08838316,96.3870968 C6.08838316,96.2048818 6.13816984,96.0261301 6.23236512,95.8701508 L6.23236512,95.8701508 L56.143982,13.2208068 C56.2867326,12.9844239 56.5117822,12.8282806 56.7602398,12.7669206 Z" id="三角形" stroke="#FF7474" stroke-width="6"></path>
                <circle id="椭圆形" fill="#FF7474" cx="91" cy="88" r="3"></circle>
                <circle id="椭圆形备份" fill="#FF7474" cx="23" cy="88" r="3"></circle>
                <circle id="椭圆形备份-2" fill="#FF7474" cx="57" cy="31" r="3"></circle>
                <g id="3" fill-rule="nonzero" fill="#FF7474">
                    <use xlink:href="#path-1"></use>
                    <use xlink:href="#path-1"></use>
                </g>
            </g>
        </g>
    </g>
</svg>