<?xml version="1.0" encoding="UTF-8"?>
<svg width="114px" height="114px" viewBox="0 0 114 114" version="1.1" xmlns="http://www.w3.org/2000/svg" xmlns:xlink="http://www.w3.org/1999/xlink">
    <title>13备份</title>
    <defs>
        <polygon id="path-1" points="50.5 87 50.5 49 41 49 41 54.446458 44.0625 54.446458 44.0625 87"></polygon>
        <path d="M65.9530516,87 C69.4814815,87 72.3656755,85.9593114 74.6056338,83.8779343 C76.8455921,81.7965571 77.9655712,79.0114763 77.9655712,75.5226917 C77.9655712,71.0031299 76.4194053,68.0693792 73.3270736,66.7214397 C75.6264997,65.1752739 76.7762128,62.6577986 76.7762128,59.1690141 C76.7762128,56.037037 75.8247261,53.5592071 73.9217527,51.7355243 C72.0187793,49.9118414 69.4913928,49 66.3395931,49 C63.1877934,49 60.6405842,49.9316641 58.6979656,51.7949922 C56.7553469,53.6583203 55.6254564,56.1956182 55.3082942,59.4068858 L55.3082942,59.4068858 L61.0766823,59.4068858 C61.0766823,55.7198748 62.7318727,53.8763693 66.0422535,53.8763693 C69.3526343,53.8763693 71.0078247,55.7198748 71.0078247,59.4068858 C71.0078247,60.9530516 70.4627021,62.2514345 69.372457,63.3020344 C68.2822118,64.3526343 66.9838289,64.8779343 65.4773083,64.8779343 L65.4773083,64.8779343 L64.7042254,64.8779343 L64.7042254,68.9812207 L66.0125196,68.8622848 C66.1711007,68.8226395 66.3296818,68.8028169 66.4882629,68.8028169 C67.915493,68.8028169 69.1940532,69.4668753 70.3239437,70.7949922 C71.4538341,72.123109 72.0187793,73.5602504 72.0187793,75.1064163 C72.0187793,76.9697444 71.4934794,78.5555556 70.4428795,79.8638498 C69.3922796,81.172144 67.9848722,81.8262911 66.2206573,81.8262911 C64.4564424,81.8262911 62.9994784,81.2316119 61.8497653,80.0422535 C60.7000522,78.8528951 60.1251956,77.3860198 60.1251956,75.6416275 L60.1251956,75.6416275 L54,75.6416275 C54,78.8528951 55.1695357,81.5487741 57.5086072,83.7292645 C59.8476787,85.9097548 62.6624935,87 65.9530516,87 Z" id="path-2"></path>
    </defs>
    <g id="页面-1" stroke="none" stroke-width="1" fill="none" fill-rule="evenodd">
        <g id="画板备份" transform="translate(-2067.000000, -929.000000)">
            <g id="13备份" transform="translate(2067.000000, 929.000000)">
                <rect id="矩形" x="0" y="0" width="114" height="114"></rect>
                <path d="M56.7602398,12.7669206 C57.0086974,12.7055606 57.2805631,12.738984 57.516946,12.8817347 L57.516946,12.8817347 L107.767635,95.8701508 C107.910386,96.1065337 107.943809,96.3783993 107.882449,96.6268569 C107.821089,96.8753146 107.664946,97.1003641 107.428563,97.2431148 C107.272584,97.3373101 107.093832,97.3870968 106.911617,97.3870968 L106.911617,97.3870968 L7.08838316,97.3870968 C6.81224078,97.3870968 6.56224078,97.275168 6.38127637,97.0942036 C6.20031197,96.9132391 6.08838316,96.6632391 6.08838316,96.3870968 C6.08838316,96.2048818 6.13816984,96.0261301 6.23236512,95.8701508 L6.23236512,95.8701508 L56.143982,13.2208068 C56.2867326,12.9844239 56.5117822,12.8282806 56.7602398,12.7669206 Z" id="三角形" stroke="#F1B715" stroke-width="6"></path>
                <circle id="椭圆形" fill="#F0B000" cx="91" cy="88" r="3"></circle>
                <circle id="椭圆形备份" fill="#F0B000" cx="23" cy="88" r="3"></circle>
                <circle id="椭圆形备份-2" fill="#F0B000" cx="57" cy="31" r="3"></circle>
                <g id="1备份" fill-rule="nonzero" fill="#F0B000">
                    <use xlink:href="#path-1"></use>
                    <use xlink:href="#path-1"></use>
                </g>
                <g id="3" fill-rule="nonzero" fill="#F0B000">
                    <use xlink:href="#path-2"></use>
                    <use xlink:href="#path-2"></use>
                </g>
            </g>
        </g>
    </g>
</svg>