<?xml version="1.0" encoding="UTF-8"?>
<svg xmlns="http://www.w3.org/2000/svg" width="1234" height="1057">
    <g>
        <rect fill="#00aa00" stroke="#55aa7f" x="123" y="29" width="54" height="55" id="43727df9fdff5f7c127c750efe12981e"/>
        <rect fill="#00aa00" stroke="#55aa7f" x="130" y="124" width="63" height="54" id="9b8a406af2bdb4d4e87f81d9a282b45b"/>
        <rect fill="#00aa00" stroke="#55aa7f" x="135" y="226" width="78" height="72" id="e9ff1508a9fc91b1cbe255e7e02fe0a2"/>
        <rect fill="#00aa00" stroke="#55aa7f" x="128" y="313" width="61" height="54" id="24883a9bd2e7d9d6001b0b4896ba0822"/>
        <rect fill="#00aa00" stroke="#55aa7f" x="127" y="418" width="71" height="55" id="303daf45b2a146a7252ff058892d561f"/>
        <rect fill="#00aa00" stroke="#55aa7f" x="126" y="506" width="75" height="52" id="0706440a4620d3d067d1d997926e2320"/>
        <rect fill="#00aa00" stroke="#55aa7f" x="348" y="31" width="49" height="60" id="3673bd99b6c70559c4d65857017203bf"/>
        <rect fill="#00aa00" stroke="#55aa7f" x="349" y="114" width="59" height="66" id="7d8021b3d70f2470edcc4d8c82a10156"/>
        <rect fill="#00aa00" stroke="#55aa7f" x="350" y="211" width="137" height="66" id="a0e860b966dd1468b041be362262f528"/>
        <rect fill="#00aa00" stroke="#55aa7f" x="354" y="317" width="84" height="49" id="27f33233ae85f346f37af4a612b6e567"/>
        <rect fill="#00aa00" stroke="#55aa7f" x="357" y="415" width="65" height="50" id="3710a9513c04821e5d24ed5fbae2cf5e"/>
        <rect fill="#00aa00" stroke="#55aa7f" x="346" y="508" width="91" height="51" id="9525cce785b22edbf8a2a29fb16a1635"/>
        <rect fill="#00aa00" stroke="#55aa7f" x="624" y="502" width="64" height="61" id="9fbbb9dc30fb0f2b3ca1546a555b59cd"/>
        <rect fill="#00aa00" stroke="#55aa7f" x="617" y="407" width="85" height="68" id="3c5d8fdcc50b16835f1f8e31c2a2907a"/>
        <rect fill="#00aa00" stroke="#55aa7f" x="628" y="309" width="100" height="71" id="7d5a68bc9fa74ec7429b505255d0b9f4"/>
        <rect fill="#00aa00" stroke="#55aa7f" x="631" y="217" width="101" height="71" id="dc574a60b3cefe9cd713fef412b2d37a"/>
        <rect fill="#00aa00" stroke="#55aa7f" x="635" y="115" width="84" height="71" id="fd73aaf8956519f93a6c7fef2d39576e"/>
        <rect fill="#00aa00" stroke="#55aa7f" x="650" y="34" width="46" height="44" id="e137b95dfbc4a83eb0debf1de4b7be46"/>
        <rect fill="#00aa00" stroke="#55aa7f" x="877" y="38" width="56" height="44" id="3cf29e95e65d858b5c02049b573f2e54"/>
        <rect fill="#00aa00" stroke="#55aa7f" x="890" y="129" width="60" height="47" id="b5a02e3ee36154d3a8717db367200300"/>
        <rect fill="#00aa00" stroke="#55aa7f" x="885" y="222" width="74" height="50" id="72016a941292336556cc785139a76388"/>
        <rect fill="#00aa00" stroke="#55aa7f" x="883" y="317" width="60" height="51" id="08b9ce305e8ae6feab2f607d671b1853"/>
        <rect fill="#00aa00" stroke="#55aa7f" x="885" y="424" width="65" height="37" id="6a5cbc01296a8443484d9749fc2841f1"/>
        <rect fill="#00aa00" stroke="#55aa7f" x="897" y="517" width="72" height="45" id="df7f97253e72b53dfbc81f1e1f2f3533"/>
        <rect fill="#00aa00" stroke="#55aa7f" x="132" y="607" width="90" height="57" id="d89f41007cbaa2db909b7fa57dd048f5"/>
        <rect fill="#00aa00" stroke="#55aa7f" x="123" y="710" width="94" height="50" id="c70c72b36bfb8cdfe713115e7a242035"/>
        <rect fill="#00aa00" stroke="#55aa7f" x="127" y="810" width="55" height="34" id="e71bb77cf30d017e13b674b5e15539ee"/>
        <rect fill="#00aa00" stroke="#55aa7f" x="133" y="900" width="64" height="46" id="2edd72bf9d462f65874f6279818ef789"/>
        <rect fill="#00aa00" stroke="#55aa7f" x="123" y="990" width="55" height="45" id="57a1a2816c86603047f23086c5401b4f"/>
        <rect fill="#00aa00" stroke="#55aa7f" x="369" y="596" width="79" height="65" id="74e5b881cab99cbbe31157356d36b033"/>
        <rect fill="#00aa00" stroke="#55aa7f" x="345" y="713" width="91" height="43" id="4837d78a44c36555c4114602c92d7460"/>
        <rect fill="#00aa00" stroke="#55aa7f" x="351" y="806" width="75" height="36" id="8c262b6bce80702e4c53622bbdc83792"/>
        <rect fill="#00aa00" stroke="#55aa7f" x="366" y="884" width="142" height="75" id="7f7c678358308cdee709dc9cb4245e31"/>
        <rect fill="#00aa00" stroke="#55aa7f" x="628" y="601" width="89" height="58" id="84118a9a54b46d60382982e2cbce7e28"/>
        <rect fill="#00aa00" stroke="#55aa7f" x="642" y="707" width="63" height="46" id="a0630003d9d9b5761ce8f2fe76c71e7d"/>
        <rect fill="#00aa00" stroke="#55aa7f" x="636" y="797" width="62" height="48" id="2aa8f4eef2c01c9b5ae3e09ba6468a80"/>
        <rect fill="#00aa00" stroke="#55aa7f" x="904" y="794" width="63" height="48" id="f86fc6fad2d2e2a9ad8e6821c40194a9"/>
        <rect fill="#00aa00" stroke="#55aa7f" x="901" y="610" width="94" height="48" id="72a94a4c77907c48fa7bd2c56b15f369"/>
    </g>
</svg>
