<?xml version="1.0" encoding="UTF-8"?>
<svg xmlns="http://www.w3.org/2000/svg" width="1153" height="486">
    <g>
        <rect fill="#00aa00" stroke="#55aa7f" x="119" y="39" width="95" height="54" id="35b89d49b1ed46a12edf9cb6e8bd9c6f"/>
        <rect fill="#00aa00" stroke="#55aa7f" x="130" y="124" width="68" height="56" id="bd2f486c11d123af328fb91071dfcd6f"/>
        <rect fill="#00aa00" stroke="#55aa7f" x="124" y="224" width="78" height="66" id="d4fed34aa93accaa6955909856629103"/>
        <rect fill="#00aa00" stroke="#55aa7f" x="130" y="314" width="67" height="46" id="ffa98ae474e4c357b852ffec40510d55"/>
        <rect fill="#00aa00" stroke="#55aa7f" x="128" y="412" width="76" height="55" id="ce2c96d3d591e2632bcb7e8f79eab29f"/>
        <rect fill="#00aa00" stroke="#55aa7f" x="350" y="416" width="87" height="50" id="1cd435c484b9cea23c805b75bf73cc6c"/>
        <rect fill="#00aa00" stroke="#55aa7f" x="354" y="306" width="99" height="52" id="d921cf775ddfc849b7d98fff3e32cdd0"/>
        <rect fill="#00aa00" stroke="#55aa7f" x="352" y="223" width="41" height="56" id="e9db978c7ee361d7c6e59f00c8fda2f7"/>
        <rect fill="#00aa00" stroke="#55aa7f" x="354" y="129" width="64" height="46" id="74e35048028791a9cce1d3587f7dde13"/>
        <rect fill="#00aa00" stroke="#55aa7f" x="356" y="36" width="68" height="56" id="1aceef2224570cffd331b3868a5566ae"/>
        <rect fill="#00aa00" stroke="#55aa7f" x="575" y="43" width="62" height="48" id="9ae4373ae5c8d8adf6d53269686b6272"/>
        <rect fill="#00aa00" stroke="#55aa7f" x="565" y="121" width="68" height="61" id="0163e852455ebd31d982e2c093a55f5d"/>
        <rect fill="#00aa00" stroke="#55aa7f" x="559" y="216" width="76" height="61" id="3793813e0859011ba1deb4c46c1dcea3"/>
        <rect fill="#00aa00" stroke="#55aa7f" x="585" y="318" width="63" height="52" id="5cf1cf3875623e9175660f992a413974"/>
        <rect fill="#00aa00" stroke="#55aa7f" x="565" y="421" width="92" height="45" id="cae639652ec73393a59289b51c1739a0"/>
        <rect fill="#00aa00" stroke="#55aa7f" x="812" y="418" width="60" height="52" id="24f5e19a3dcf42309d09beb22632cf1f"/>
        <rect fill="#00aa00" stroke="#55aa7f" x="1044" y="420" width="73" height="53" id="57ab01b3a64042a783f4ca577ca0aa3b"/>
        <rect fill="#00aa00" stroke="#55aa7f" x="807" y="315" width="77" height="54" id="ac3a4e84d2e03e753bf3053f1ba41bfe"/>
        <rect fill="#00aa00" stroke="#55aa7f" x="787" y="218" width="69" height="60" id="b1df4e3784337a6a1ea1d10fc2126efa"/>
        <rect fill="#00aa00" stroke="#55aa7f" x="784" y="126" width="83" height="53" id="f1060801602d04770a84fd2af0b0e814"/>
        <rect fill="#00aa00" stroke="#55aa7f" x="793" y="31" width="117" height="62" id="4c302e750b63277984e391d302d11ea1"/>
        <rect fill="#00aa00" stroke="#55aa7f" x="1024" y="38" width="83" height="58" id="3ce72354f64e5d023749923ed0cc8333"/>
        <rect fill="#00aa00" stroke="#55aa7f" x="1007" y="128" width="80" height="82" id="901e1db7066526daa31fdeadcd2be878"/>
        <rect fill="#00aa00" stroke="#55aa7f" x="1026" y="225" width="64" height="48" id="ddbc7a50fae1ac6266c0ff86ff8f6b5b"/>
        <rect fill="#00aa00" stroke="#55aa7f" x="1041" y="310" width="91" height="69" id="eacc0ad1f5426505436beef16d5bac0b"/>
    </g>
</svg>
